<svg width="24" height="16" viewBox="0 0 24 16" fill="none" xmlns="http://www.w3.org/2000/svg">
<path d="M14.501 2.52607C14.2545 2.26833 14.2546 1.86225 14.501 1.60453L15.8387 0.205879C16.1013 -0.068637 16.5398 -0.0686247 16.8023 0.205906L23.8151 7.53914C24.0616 7.79687 24.0616 8.20292 23.8152 8.46066L16.8023 15.7941C16.5398 16.0686 16.1012 16.0686 15.8387 15.7941L14.501 14.3952C14.2545 14.1375 14.2546 13.7315 14.501 13.4737L18.1522 9.6558L0.666666 9.6558C0.298475 9.6558 0 9.35732 0 8.98913V7.01087C0 6.64268 0.298475 6.3442 0.666666 6.3442L18.1522 6.3442L14.501 2.52607Z" fill="#D8D9E2"/>
</svg>
