<svg width="26" height="26" viewBox="0 0 26 26" fill="none" xmlns="http://www.w3.org/2000/svg">
<path d="M13 24.2C19.1856 24.2 24.2 19.1856 24.2 13C24.2 6.81442 19.1856 1.80001 13 1.80001C6.81442 1.80001 1.80001 6.81442 1.80001 13C1.80001 19.1856 6.81442 24.2 13 24.2ZM13 25.8C5.93077 25.8 0.200012 20.0693 0.200012 13C0.200012 5.93077 5.93077 0.200012 13 0.200012C20.0693 0.200012 25.8 5.93077 25.8 13C25.8 20.0693 20.0693 25.8 13 25.8ZM9.80001 7.87481C9.99658 7.70137 10.2119 7.5366 10.4461 7.3805C10.6802 7.2244 10.9332 7.08854 11.2049 6.97291C11.4766 6.85728 11.7715 6.76623 12.0894 6.69974C12.4074 6.63325 12.7514 6.60001 13.1214 6.60001C13.6244 6.60001 14.0826 6.66939 14.4959 6.80814C14.9093 6.9469 15.2634 7.14491 15.5583 7.40218C15.8531 7.65945 16.0815 7.9702 16.2434 8.33443C16.4053 8.69866 16.4862 9.10624 16.4862 9.55719C16.4862 9.99658 16.4226 10.3767 16.2954 10.6976C16.1682 11.0184 16.0078 11.2974 15.8141 11.5344C15.6204 11.7715 15.4109 11.9767 15.1854 12.1501C14.9599 12.3236 14.746 12.4869 14.5436 12.6401C14.3413 12.7933 14.1664 12.9436 14.019 13.0911C13.8716 13.2385 13.7834 13.4047 13.7545 13.5897L13.555 14.8558H12.0894L11.942 13.4423C11.9362 13.4134 11.9333 13.3888 11.9333 13.3686V13.2949C11.9333 13.0405 11.9969 12.8193 12.1241 12.6314C12.2513 12.4436 12.4103 12.2672 12.6011 12.1024C12.7919 11.9377 12.9971 11.7772 13.2168 11.6211C13.4365 11.4651 13.6417 11.2959 13.8325 11.1138C14.0233 10.9317 14.1823 10.725 14.3095 10.4938C14.4367 10.2625 14.5003 9.9908 14.5003 9.6786C14.5003 9.47047 14.4613 9.28402 14.3832 9.11925C14.3052 8.95448 14.1968 8.81284 14.058 8.69432C13.9193 8.5758 13.753 8.48475 13.5594 8.42115C13.3657 8.35755 13.1561 8.32576 12.9306 8.32576C12.6011 8.32576 12.3221 8.36189 12.0938 8.43416C11.8654 8.50643 11.6717 8.58736 11.5127 8.67698C11.3538 8.76659 11.2193 8.84753 11.1095 8.9198C10.9996 8.99206 10.9014 9.0282 10.8146 9.0282C10.6065 9.0282 10.4562 8.94148 10.3637 8.76803L9.80001 7.87481ZM11.439 18.0992C11.439 17.92 11.4723 17.7494 11.5388 17.5875C11.6053 17.4257 11.6978 17.2869 11.8163 17.1713C11.9348 17.0557 12.075 16.9632 12.2369 16.8938C12.3987 16.8244 12.5722 16.7897 12.7572 16.7897C12.9364 16.7897 13.107 16.8244 13.2688 16.8938C13.4307 16.9632 13.5695 17.0557 13.6851 17.1713C13.8007 17.2869 13.8932 17.4257 13.9626 17.5875C14.032 17.7494 14.0667 17.92 14.0667 18.0992C14.0667 18.2842 14.032 18.4562 13.9626 18.6152C13.8932 18.7742 13.8007 18.9115 13.6851 19.0271C13.5695 19.1427 13.4307 19.2338 13.2688 19.3003C13.107 19.3668 12.9364 19.4 12.7572 19.4C12.5722 19.4 12.3987 19.3668 12.2369 19.3003C12.075 19.2338 11.9348 19.1427 11.8163 19.0271C11.6978 18.9115 11.6053 18.7742 11.5388 18.6152C11.4723 18.4562 11.439 18.2842 11.439 18.0992Z" fill="#242424"/>
</svg>
