<svg width="23" height="26" viewBox="0 0 23 26" fill="none" xmlns="http://www.w3.org/2000/svg">
<path fill-rule="evenodd" clip-rule="evenodd" d="M11.6314 1.80001C11.1724 1.80001 10.7299 2.20463 10.7299 2.79294V5.6631L10.1021 5.80149C6.7365 6.54346 4.16024 9.70823 4.16024 13.553V13.5969L3.47757 19.8079L3.09162 20.0037C2.69426 20.2053 2.39999 20.6421 2.39999 21.1728V21.3721C2.39999 21.5615 2.43638 21.6317 2.44456 21.6456L2.44503 21.6464C2.44874 21.6528 2.4584 21.6696 2.51315 21.6945C2.58316 21.7264 2.70219 21.7591 2.89731 21.7798C3.09015 21.8002 3.31567 21.8053 3.58617 21.8053H19.6748C19.9452 21.8053 20.1706 21.8002 20.3635 21.7798C20.5587 21.7591 20.6779 21.7264 20.7481 21.6944C20.8032 21.6694 20.813 21.6524 20.8168 21.6459L20.8172 21.6451C20.8255 21.6312 20.8619 21.5609 20.862 21.3717V21.1729C20.862 20.6427 20.5684 20.2068 20.1703 20.0045L19.7847 19.8086L19.1021 13.597V13.5532C19.1021 9.70792 16.5258 6.54348 13.1602 5.80166L12.5324 5.66328V2.79294C12.5324 2.20449 12.0898 1.80001 11.6314 1.80001ZM9.1299 2.79294C9.1299 1.40105 10.2108 0.200012 11.6314 0.200012C13.0517 0.200012 14.1324 1.4012 14.1324 2.79294V4.40232C17.9349 5.54355 20.6831 9.20555 20.702 13.5085L21.2856 18.8188C22.0011 19.3452 22.462 20.2054 22.462 21.1729V21.3722C22.4618 21.7614 22.3867 22.1351 22.1937 22.4608C21.9959 22.7946 21.713 23.0132 21.4108 23.1507C20.8669 23.3983 20.1909 23.4053 19.6748 23.4053H15.6105C15.4205 24.0314 15.0047 24.5613 14.4845 24.9514C13.7658 25.4902 12.8098 25.7997 11.7881 25.7997C10.7664 25.7997 9.81033 25.4902 9.09165 24.9514C8.5713 24.5613 8.15542 24.0314 7.96535 23.4053H3.58617C3.06995 23.4053 2.39383 23.3983 1.84997 23.1506C1.54784 23.013 1.26501 22.7941 1.06746 22.4602C0.874699 22.1343 0.799988 21.7612 0.799988 21.3721V21.1728C0.799988 20.2057 1.2608 19.3443 1.97678 18.8177L2.56034 13.5083C2.57926 9.20582 5.32747 5.54357 9.1299 4.40219V2.79294ZM9.80157 23.4487C9.873 23.5252 9.95608 23.5998 10.0514 23.6713C10.4675 23.9832 11.0789 24.1997 11.7881 24.1997C12.4973 24.1997 13.1086 23.9832 13.5246 23.6713C13.62 23.5998 13.703 23.5253 13.7744 23.4487H9.80157Z" fill="#242424"/>
</svg>
